<?xml version="1.0" encoding="utf-8"?>
<!-- Generator: Adobe Illustrator 17.1.0, SVG Export Plug-In . SVG Version: 6.00 Build 0)  -->
<!DOCTYPE svg PUBLIC "-//W3C//DTD SVG 1.1//EN" "http://www.w3.org/Graphics/SVG/1.1/DTD/svg11.dtd">
<svg version="1.1" id="Layer_1" xmlns="http://www.w3.org/2000/svg" xmlns:xlink="http://www.w3.org/1999/xlink" x="0px" y="0px"
	 viewBox="0 0 640 480" enable-background="new 0 0 640 480" xml:space="preserve">
<linearGradient id="SVGID_1_" gradientUnits="userSpaceOnUse" x1="24.0395" y1="219.7347" x2="579.6981" y2="219.7347">
	<stop  offset="0" style="stop-color:#7F6EFF;stop-opacity:0"/>
	<stop  offset="1" style="stop-color:#45EE21"/>
</linearGradient>
<polygon fill="url(#SVGID_1_)" points="584.3,219.9 211,29.6 20.8,219.7 211,409.9 "/>
<g id="shape_2_">
	
		<linearGradient id="SVGID_2_" gradientUnits="userSpaceOnUse" x1="7" y1="262.2647" x2="584.3457" y2="262.2647" gradientTransform="matrix(1 0 0 -1 0 482)">
		<stop  offset="0" style="stop-color:#FF00FF;stop-opacity:0"/>
		<stop  offset="0.4994" style="stop-color:#FF00FF"/>
		<stop  offset="1" style="stop-color:#FCEE21"/>
	</linearGradient>
	<path opacity="0.9" fill="url(#SVGID_2_)" enable-background="new    " d="M391,26.3V26H7l191,193.7L7,413h370.3
		c4.4,0.3,8.9,0.5,13.4,0.5c106.9,0,193.6-86.7,193.6-193.6C584.3,113,497.8,26.4,391,26.3z"/>
</g>
<g id="shape_1_">
	
		<linearGradient id="SVGID_3_" gradientUnits="userSpaceOnUse" x1="40" y1="262.2647" x2="584.3457" y2="262.2647" gradientTransform="matrix(1 0 0 -1 0 482)">
		<stop  offset="0" style="stop-color:#FF00FF;stop-opacity:0"/>
		<stop  offset="0.4994" style="stop-color:#FF00FF"/>
		<stop  offset="1" style="stop-color:#FCEE21"/>
	</linearGradient>
	<path opacity="0.9" fill="url(#SVGID_3_)" enable-background="new    " d="M391,26.3V26H40l191,193.7L40,413h337.3
		c4.4,0.3,8.9,0.5,13.4,0.5c106.9,0,193.6-86.7,193.6-193.6C584.3,113,497.8,26.4,391,26.3z"/>
</g>
<g id="crosswalk">
	
		<image overflow="visible" enable-background="new    " width="640" height="480" xlink:href="SVG Collage/crosswalk.png"  transform="matrix(0.9999 0 0 0.9999 -7999.96 -8111.9702)">
	</image>
</g>
<g id="shape">
	
		<linearGradient id="SVGID_4_" gradientUnits="userSpaceOnUse" x1="72" y1="262.2647" x2="584.3457" y2="262.2647" gradientTransform="matrix(1 0 0 -1 0 482)">
		<stop  offset="0" style="stop-color:#7F6EFF;stop-opacity:0"/>
		<stop  offset="1" style="stop-color:#FFEE21"/>
	</linearGradient>
	<path opacity="0.9" fill="url(#SVGID_4_)" enable-background="new    " d="M391,26.3V26H72l191,193.7L72,413h305.3
		c4.4,0.3,8.9,0.5,13.4,0.5c106.9,0,193.6-86.7,193.6-193.6C584.3,113,497.8,26.4,391,26.3z"/>
</g>
<linearGradient id="SVGID_5_" gradientUnits="userSpaceOnUse" x1="43.926" y1="219.7347" x2="579.8631" y2="219.7347">
	<stop  offset="0" style="stop-color:#7F6EFF;stop-opacity:0"/>
	<stop  offset="1" style="stop-color:#45EE21"/>
</linearGradient>
<polygon opacity="0.4" fill="url(#SVGID_5_)" points="584.3,219.9 231,29.6 40.8,219.7 231,409.9 "/>
<g id="building">
	<g>
		<path d="M263,480c1.6-2.6,1.6-5.5,2.1-8.4c2.7-15.2,5.2-30.5,8.4-45.7c1.6-7.6,2.6-15.2,4.2-22.7c1.7-7.5,2.9-15,4.3-22.6
			c2.4-12.6,4.7-25.1,7.1-37.7c1.6-8.5,3.5-16.9,4.8-25.4c0.8-5.6,3.9-9.7,7.4-13.7c3.2-3.8,6.7-7.3,9.6-11.3
			c1.7-2.4,2.3-5.5,3.8-8.1c1.1-2,1.7-4.7,5.4-4.1c1,0.1,2.7-2.6,3.6-4.2c1.1-2,1.5-4.4,2.6-6.4c1.3-2.2,1.7-5.9,5.8-4.5
			c1.4-2,3-3.8,4.2-5.9c1.1-2,1.6-4.4,2.8-6.4c1.2-2.2,2.1-5.2,5.7-4.4c1.4-2,3-3.9,4.2-6c1.7-3,3.1-6.2,4.9-9.2
			c0.9-1.4,1.9-3.3,4.3-2.3c0.3,0.1,0.9-0.2,1.3-0.5c0.3-0.2,0.4-0.5,0.6-0.8c2.4-3.4,5.5-6.2,5.3-11.1c-0.2-3.2,1-6.5,1.3-9.8
			c0.1-1.6,1.2-3.5-0.9-4.8c-0.1-0.1,0.2-1.6,0.7-1.9c0.7-0.5,1.8-0.9,2.5-0.6c2.8,1.1,5.5,2.3,8.1,3.8c2.9,1.7,5.6,1.8,8.9,0.8
			c10.2-3.1,19.8-1.3,28.1,5.7c3.1,2.6,5.6,6,5.7,10.2c0.1,3.1,1.5,4.4,4,5.5c12.2,5.8,24.3,11.6,36.5,17.4
			c18.2,8.7,36.4,17.3,54.6,25.9c2,0.9,4.3,1.6,2.7,4.7c-0.2,0.4,0,1,0.1,1.5c0.6,4.5,2.2,8.9,1.8,13.7c-0.2,2.2,1.5,4.6,2.3,6.9
			c0.3,0.9,0.7,1.9,0.6,2.8c-1,5.9,1,11.5,2,17.2c1.4,8.4,3.2,16.7,4.9,25c1.4,0.3,3,0.5,4.5,1c1.9,0.6,3.3,1.6,2.2,4
			c-0.6,1.3,0,2.1,1.3,2.6c3.5,1.4,6.9,3,11.2,4.9c-2.1-10.2-4.1-19.5-6.1-29.3c2.7,0.2,4.1,1.3,4.6,3.7c0.6,3.3,1.3,6.5,1.8,9.8
			c0.4,2.9,1.3,5.2,4.6,5.8c0.2-0.4,0.3-0.9,0.6-1.2c3.7-5.5,6.5-5.6,10.5-0.4c0.6,0.8,1.2,1.6,2.1,2.9c-3.4,2.4-6.7,4.7-9.9,7
			c-1.6-1.9-3.1-3.7-5.1-6.1c-0.9,3.5,0.3,5.9,1.2,8.2c0.6,1.6,2.2,1.1,3.4,0.4c2.9-1.9,5.8-3.9,8.7-5.9c1.4-0.9,2.7-1.9,4.5-3.2
			c-0.5,3.7-5.3,3.7-5,7.1c-3,0-5.2,1.3-7,3.9c2.1,2.7,5.4,3.6,8.3,5c3,1.4,6.1,2.6,9.8,4.1c-0.6-3.4-0.7-6.3,3.5-7.4
			c-0.2,0.9-0.1,1.9-0.5,2.5c-0.7,1.1-1.1,1.5,0.7,1.7c0.5,0.1,0.9,1.8,1.2,2.9c0.5,1.9,1.6,3.1,3.5,3.9c8,3.3,15.9,6.7,23.8,10.2
			c8.9,3.8,17.7,7.8,26.5,11.6c0.6,0.2,1.2,0.4,2.2-0.1c-5-4.4-10.1-8.9-15.1-13.3c-4.4-3.8-8.8-7.7-13.3-11.3c-1.7-1.4-2.5-3-3-4.9
			c-3.2-11.7-6.4-23.5-9.8-35.1c-0.9-3.1-2.6-6-3.7-9.1c-0.4-1.1-0.3-2.5-0.1-3.8c0.1-0.4,1.4-1,1.8-0.8c2.1,0.9,3.8,1.9,4.5,4.7
			c2.9,11.1,6.2,22.1,9.4,33.2c0.3,1.1,0.8,2.1,1.8,3.2c0.1-0.8,0.2-1.7,0.4-2.5c0.2-0.9,0.4-2.4,0.9-2.6c3.7-1.3,2.2-3.7,1.5-5.9
			c-5.2-17.5-10.5-35.1-15.7-52.6c-0.5-1.5-0.9-3.1-1.4-4.8c2.7,0.1,3.4,1.7,4,3.5c1.1,3.7,2.2,7.3,3.4,11c0.3,1.1,0.7,2.3,1.3,3.2
			c1.2,1.7,2.3,1.5,4,0c2-1.7,4.2-3.2,6.2-4.7c1.1,2.4,2.1,4.6,3.1,6.8c1.2-2.7,1.2-5.5,3.8-7.1c0.3-0.2,0.1-1.2,0-1.8
			c-0.2-1-0.6-1.9-1-2.8c-1.2-3.5-1.2-3.5,0.6-7.8c5.3,4,9.8,9.2,17.3,11.1c-2.4-6.6-4.5-12.4-6.6-18.3c3.2,1.5,7,3,9.3,6.6
			c0,14.7,0,29.3,0,44c-0.6-1.3-1.4-2.6-1.8-4c-2.3-6.6-4.6-13.2-7-19.8c-0.6-1.7-1.7-3.3-2.6-4.8c-0.8,0.3-1,0.4-1.1,0.4
			c-3.5,2.3-7.4,4.3-4.5,9.7c0.3,0.5-0.9,1.8-1.5,2.7c-0.6-0.3-1.1-0.7-1.7-1c-0.6-0.3-1.2-0.7-1.9-1c-0.3,0.7-0.7,1.4-0.8,2.2
			c-0.2,1,0.2,2.5-0.3,3.1c-1.1,1.2-2.5,2.4-4,2.8c-0.8,0.2-2.1-1-3.1-1.6c0.6-5.2,0.2-6.1-5.3-9c2.2,3.6,1.1,7.6,5.1,9.1
			c-1.3,1-1,2.2-0.5,3.6c3.2,10,6.4,20.1,9.5,30.2c0.6,1.9,1.5,3.2,4.7,2.5c-1.5,1.1-2,1.6-2.5,1.9c-5,3.3-5,3.3-3.3,8.8
			c1.5,4.9,1.5,4.9,6.3,2.4c0.7-0.4,1.4-0.7,2.1-1c2,3.5,2,3.4,0.5,6.2c-0.3,0.5-0.5,1.2-0.4,1.8c0.7,5.7,8.2,12.9,14.1,13.7
			c0,30.3,0,60.7,0,91c-121.7,0-243.3,0-365,0c0.6-1.4,1.2-2.8,1.9-4.2c-0.2-0.2-0.5-0.4-0.7-0.6c-1.4,1.6-2.7,3.2-4.1,4.7
			C269,480,266,480,263,480z M291.9,390.9c2.3-4.1,2.1-8.8,3.1-13.2c0.7-3.2,0.8-6.4,1.2-9.6c-0.3-0.1-0.6-0.2-0.8-0.2
			c-0.7,1.1-1.3,2.1-2,3.2c-2.3,2.2-5.4,3.8-6.7,7c-0.5,1.7-0.9,3.4-1.6,6.1c3.2-3.4,5.8-6.1,9-9.5c-0.8,6.2-1.4,11.3-2,16.4
			c-2.2,1.7-2,3.9-1.7,6.7C293.7,395.7,291.8,393.1,291.9,390.9z M308.3,430.9c4.9,1.7,5.5,1.6,6.5-1.2c0.8-2.1,0.7-4.6,3.1-5.9
			c0.1-0.1-0.2-1.1-0.4-1.6c-0.2-0.4-1-0.9-1-1c1.7-3.2-0.3-7.4,3-10.1c0.3-0.2,0.4-1,0.3-1.4c-1.7-3.5-1.4-6.8,1-9.9
			c0.2-0.3,0.2-1.3,0.1-1.3c-2.6-0.7-0.7-2.3-0.8-3.5c0-0.8,0.3-1.7,0.1-2.4c-0.2-0.7-0.7-1.5-1.3-1.9c-0.3-0.2-1.3,0.3-1.6,0.8
			c-1.8,2.1-3.9,3.7-3.3,7.4c0.6,4-1.8,8-1.5,12.3c0.2,2,1,4.7-1.8,6.2c-0.4,0.2-0.3,1.5-0.1,2.3
			C311.2,423.6,311.7,427.6,308.3,430.9z M354.6,278.8c0.4,0.1,0.8,0.1,1.2,0.2c2.4-2.9,5.3-5.3,5.6-9.5c0.8-10.7,1.8-21.4,2.6-32.1
			c0.1-1-0.2-2-0.4-3.4c-2.1,2.5-4.6,4.3-5.3,6.6c-1.4,4.8-2.8,10-2.5,14.9c0.2,4.5-0.4,8.7-0.6,13.1
			C355.1,272,354.9,275.4,354.6,278.8z M347.1,336.1c0.3,0.1,0.6,0.3,0.9,0.4c0.9-0.9,1.9-1.7,2.8-2.6c2.7-2.4,4.1-5.2,4-9.1
			c-0.1-4.3,0.7-8.6,1-12.9c0.4-5.2,0.6-10.3,0.9-15.5c-1.2,1.3-1.7,2.7-1.9,4.1c-0.8,8.1-1.4,16.2-2.1,24.3
			c-0.2,1.8,0.1,3.8-1.9,6.3c0.4-6.1,0.8-11.2,1.2-17.1c-1.4,1.5-2.2,2.3-3.1,3.3c-0.4-4.3-0.4-4.2,2.6-5c0.5-0.1,1.1-0.7,1.1-1.2
			c0.1-2,0.1-3.9,0.1-5.9c-0.7,0.7-1.2,1.6-2,1.8c-2.7,1-5.4,1.9-5.6,5.5c0,0.5-0.7,1.5-1,1.5c-4.1-0.6-4.8,3.4-7.1,5.2
			c-0.4,0.3-0.2,1.4-0.3,2.2c0.7-0.2,1.5-0.3,1.9-0.7c0.7-0.7,1.4-1.5,1.8-2.4c0.9-2.1,2.7-2.3,4.6-2c2.1,0.2,2.6,1.9,3,3.5
			c0.4,1.8,0.2,3.8,1,5.3c0.8,1.4,0.5,2.3,0,3.6C348.2,331.1,347.7,333.6,347.1,336.1z M294.2,417.2c-0.3-0.3-0.7-0.6-1-0.8
			c-1.9,1.9-3.9,3.9-5.9,5.7c-1.1,1-1.1,2-1,3.5c0.1,2.9-0.3,5.7-1.6,8.6c-1.1,2.5-0.6,5.8-0.9,8.7c0,0.3-0.2,0.7-0.5,0.8
			c-1.3,0.9-0.9,2-0.9,3.4c0.2,3.2,0.2,6.5-1.4,9.5c-0.3,0.5-0.3,1.2-0.4,1.8c1.2-0.1,2.2,2.3,3.4,0.5c1.6-2.4,2.9-5,4.2-7.6
			c0.1-0.2-0.2-0.6-0.3-0.9c-0.1-1.1-0.5-2.2-0.3-3.2c0.4-2.5,0.7-5,2-7.5c1.1-2-0.7-5.5,0.4-7.6c1.5-2.8,1-5.6,1.3-8.4
			C291.7,421.2,292,418.9,294.2,417.2z M310.1,302.5c-5,4.4-5.6,9.7-6.2,14.9c-0.9,7.6-1.6,15.2-8.3,20.5c-1.5,1.2-2.2,3.3-3.3,4.9
			c0.2,0.2,0.5,0.3,0.7,0.5c2.4-2.7,4.8-5.4,7.2-8.1c0.2,0.2,0.4,0.3,0.6,0.5c-0.3,2.8-0.7,5.6-1,8.5c0.3,0.1,0.7,0.2,1,0.3
			c1.2-2.4,3.7-3.8,4.1-7c1.2-9.7,2.8-19.3,4.2-29C309.4,306.7,309.7,305,310.1,302.5z M339.7,297c3.5-2.4,4.5-4.8,4.8-7.8
			c0.9-10,2.1-20,3.1-30.1c0.1-1.4,0-2.8,0-4.5c-2.4,1.7-3.4,3.9-3.9,6.4c-1,4.1,0.4,8.8-2.9,12.3c-0.1,0.1-0.1,0.4-0.1,0.4
			c3.1,1.4,0.7,3.8,0.9,5.6c0.2,2.1-0.5,4.2-0.7,6.4C340.5,289.2,340.1,292.7,339.7,297z M325.9,312.8c0.4,0.1,0.7,0.3,1.1,0.4
			c0.9-2,3.1-3.1,3.3-5.8c0.6-7.3,1.6-14.5,2.4-21.8c0.5-4.2,1-8.5,1.6-13.4c-3.5,1.9-3.8,4.6-4.1,7.1c-0.6,4.7-1.2,9.5-1.8,14.2
			C327.6,300,326.8,306.4,325.9,312.8z M313,329.3c2.6-2.5,3.8-4.2,4.2-7c1.3-10.5,3-21,4.6-31.5c0.1-0.8-0.1-1.7-0.2-2.6
			c-1.8,1.7-3.1,3.5-3.4,5.5C316.4,305.2,314.8,316.7,313,329.3z M309.8,353.3c1-1.1,1.9-2.2,3-3.2c2.4-2,4.8-1.3,5.4,1.9
			c0.4,2,0.4,4.1,0.7,7.3c0.9-1.8,1.4-2.4,1.6-3.1c0.5-2.7,0.9-5.5,1.2-8.3c0-0.2-0.2-0.4-0.3-0.6c-0.6,1-1.2,1.9-2,3.1
			c-1.8-2.7-0.1-4.7,1.3-5.9c2-1.8,0.9-2.7-0.1-4.2c-1,0.9-2,1.6-2.7,2.4c-0.6,0.7-0.9,1.7-1.4,2.5c-0.3,0.5-0.8,1-1.3,1.2
			C311.1,347.9,310.1,349,309.8,353.3z M360.4,293.5c-0.4,0-0.7-0.1-1.1-0.1c-0.2,0.4-0.7,0.8-0.7,1.2c-0.8,9.9-1.6,19.8-2.4,29.7
			c0,0.4,0.6,0.8,1.8,2.2C358.9,314.9,359.7,304.2,360.4,293.5z M334.3,323.6c-3.5,3.5-5.6,6.6-5.9,10.6c0,0.4,0.2,1.1,0.5,1.2
			c0.3,0.2,1.2,0,1.3-0.2C332,331.8,334.5,328.6,334.3,323.6z M307.1,357.4c-0.4-0.2-0.8-0.4-1.1-0.6c-3.1,1.8-4.1,4.7-4.7,8
			c-0.1,0.4,0.2,0.9,0.4,1.3c0.6-0.2,1.4-0.2,1.6-0.6C304.6,362.9,305.8,360.1,307.1,357.4z M287.9,418.5c-0.3-0.3-0.5-0.5-0.8-0.8
			c-4,2.2-8.7,7.4-10,12C281.2,425.4,284.5,422,287.9,418.5z M317.3,366.9c0.3,0.1,0.6,0.2,0.8,0.3c0.7-0.9,1.5-1.6,2.1-2.6
			c0.2-0.4-0.2-1.1-0.3-1.6c-0.6,0.1-1.5,0.1-1.7,0.4C317.9,364.4,317.6,365.7,317.3,366.9z M324.2,359.3c0.5,0,1,0.1,1.5,0.1
			c0.1-1.4,0.3-2.9,0.4-4.3c-0.4,0-0.8-0.1-1.2-0.1C324.7,356.4,324.4,357.9,324.2,359.3z"/>
		<path d="M231,480c1.3-5.5,2.6-10.9,3.9-16.4c0.8-3.7,1.4-7.4,2.2-11.1c2.5-10.5,5.4-20.9,7.8-31.4c2.5-10.8,4.6-21.7,7-32.5
			c2-9.2,4.2-18.4,6.5-27.6c0.5-1.9,1.3-3.8,2.5-5.3c2.7-3.3,5.8-6.3,8.6-9.5c1.6-1.8,3.1-3.6,3.7-6.3c0.8-4.2,2.3-8.3,3.4-12.4
			c0.3-1.3,1.5-3-0.6-4.2c-0.1,0,0.6-1.8,1.2-2.4c0.6-0.5,1.6-0.6,2.5-0.8c0.2,0.7,0.5,1.5,0.5,2.2c-0.1,1.3-0.6,2.6-0.8,3.9
			c-0.2,1.9-0.2,3.9-0.3,5.8c-1.8,4.3-2.9,8.8-2,13.6c0.6-4.6,1.3-9.1,1.9-13.7c3.9-4.6,7.7-9.3,12.4-14.9
			c-0.9,5.2-1.5,9.4-2.4,13.6c-0.9,4.2-2.2,8.3-3.1,12.4c-0.2,1.1,0.5,2.4,0.2,3.4c-1,2.5-0.7,5.7-3.6,7.4c-0.7,0.4-0.8,1.7-1.4,3.1
			c1.2-0.7,1.9-1,2.6-1.4c0.2,0.2,0.5,0.4,0.5,0.6c-1.3,7.7-2.9,15.4-3.9,23.1c-0.2,1.7-3.4,2.3-1.4,4.9c0.6,0.8-1.1,3.3-1.4,5.1
			c-0.4,2.7-2.3,4.3-4,6.2c-1.8,2-3.6,4.1-4.9,6.6c3.1-1.8,5.1-4.7,8.4-6.8c-1.1,5.2-2.2,10.4-3.2,15.6c-1,5.5-1.8,11.1-3,16.6
			c-0.9,4-1.2,8.3-4.7,11.4c-1.7,1.5-3.3,3.3-4.8,5c-0.8,0.9-1.3,2.1-1.3,3.6c2.5-2.3,4.9-4.7,7.4-7c0.3,0.1,0.5,0.2,0.8,0.3
			c-0.9,4.9-1.6,9.9-2.6,14.7c-1.3,6.7-2.8,13.3-4.2,20c-0.3,1.6-0.8,3.2-1.2,4.8c-3.7,0-7.3,0-11,0c0.8-4.2,1.6-8.5,2.4-12.7
			c-0.2,0-0.5-0.1-0.7-0.1c-0.9,4.3-1.8,8.6-2.7,12.8c-1.7,0-3.3,0-5,0c0.6-1.7,1.3-3.3,1.7-5.1c0.6-2.8,1-5.6-0.1-9.1
			c-1,1.4-1.9,2.2-2.2,3.2c-0.9,3.6-1.7,7.3-2.5,11C237,480,234,480,231,480z M269.7,354c-2.6,1.7-3.7,3.9-4.2,6.3
			c-1,5.1-1.8,10.3-2.9,15.3c-0.4,1.8-0.4,3.9-2.5,5.2c-0.9,0.5-1.2,1.9-1.7,2.9c-0.1,0.2,0.1,0.5,0.2,0.8c0.7-0.3,1.3-0.7,2.4-1.3
			c-1.8,7.7-3.2,14.8-5.1,21.8c-1.1,3.8-0.3,8.1-2.8,11.6c1.2,2-0.4,2.8-1.6,4c-2,1.9-3.7,4-5.5,6.1c0.2,0.2,0.5,0.4,0.7,0.7
			c1.8-1.7,3.5-3.4,6.1-5.9c-1.6,7.4-3,13.7-4.3,20c0,0.1,0.1,0.3,0.2,0.4c0.1,0.1,0.3,0,0.4,0.1c4.7-3.5,4.1-9.3,5.8-14
			c1.7-4.6,1.5-10,2.6-14.9c1.6-7.2,3.6-14.3,5.2-21.4c1.2-5.4,2.1-10.9,3.3-16.3c1.1-5.2,2.5-10.4,3.5-15.6
			C269.9,358,269.7,356.2,269.7,354z M276,349.3c-2.7,4.9-9.9,39.6-9.3,43.9C269.8,378.6,272.8,364.5,276,349.3z M265.2,400.5
			c-3.3,11.7-6,23.4-7.2,35.4C260.4,424,262.8,412.3,265.2,400.5z M243.1,463.3c-3.7,2-5,3.3-6.5,6.9
			C240.5,467.7,241.7,466.3,243.1,463.3z"/>
		<path d="M183,480c0.3-1.6,0.4-3.3,0.8-4.8c2.7-9.6,5.3-19.2,8.2-28.7c0.7-2.4,2.3-5,4.2-6.5c2.3-1.9,3.6-4.2,4.6-6.9
			c0.5-1.4,1-2.9,1.9-4c0.6-0.8,1.7-1.1,2.6-1.7c0.7-0.5,1.6-0.8,2-1.5c0.9-1.8,1.5-3.7,2.4-5.5c0.5-1,1.1-2.3,2-2.7
			c1-0.5,2.4,0,3.3-1.4c2-3.2,4.5-6.1,6.4-9.3c1.9-3.2,2.3-7.4,7-8.3c0.3-0.1,0.6-0.8,0.8-1.2c3.4-7,3.5-6.9,8.4-11.5
			c1.5-1.4,2.3-3.8,3-5.8c1.5-4.2,2.8-8.5,4-12.8c0.6-2.1-0.2-2.5-3-1.8c0.5-2.2,0.9-4.2,1.4-6.2c1-3.9,2.2-4.4,5.5-2.3
			c0.8,0.5,1.6,1.2,2.4,1.8c-2.4,3.6-4.8,10.7-5.6,17.5c3.3-4.3,6.2-8.1,9.2-11.9c0.3,0.2,0.7,0.4,1,0.5c-0.9,3.8-1.9,7.7-2.8,11.5
			c-1,4.5-2,9.1-3,13.6c-0.1,0.3,0,0.7-0.1,1c-2.7,5.1-2.5,11-3.9,16.4c-1.4,5.5-2.8,10.9-4.2,16.4c-0.5,2.1-0.8,4.2-1.1,6.3
			c-0.5,4.4-4,7-5.8,10.9c1.1-1,2.2-1.9,3.3-2.9c0.3,0.1,0.5,0.2,0.8,0.3c-2.4,9.4-4.9,18.8-7.1,28.2c-0.7,2.8-0.7,5.8-2.8,8.1
			c-1.9,1.8-3.8,3.7-5.7,5.5C209.7,480,196.3,480,183,480z M217.2,462.9c1.6-2,1.6-2-0.5-5.3c-0.1,1.1-0.1,2.3-0.2,3.4
			c-4.6,1-4.6,1-5.6,3.4c1.9-0.4,4-0.8,6.2-1.3c-0.6,2.6-1.2,5.1-1.8,7.7c0.5,0.1,0.9,0.2,1.4,0.2C216.3,468.3,219,466,217.2,462.9z
			 M217.9,419.3c-4.8,4.7-8,9.4-9.3,15.6c-1.7,7.8-4.1,15.4-6.1,23.1c-0.2,0.6-0.2,1.2-0.4,2.7c2.7-3.2,5-5.7,7.1-8.3
			c0.6-0.7,0.7-1.8,1-2.8c2.5-9.2,5-18.3,7.4-27.5C217.7,421.4,217.7,420.6,217.9,419.3z M226,434.8c3.5-6.2,4.6-13,6.3-19.7
			c1.6-6.6,3.6-13.1,4.9-21C233,399.2,225,429.7,226,434.8z M186.6,479.1c0.9-1.2,2-2,2.3-3c2.8-10,5.6-20,8.3-30
			c-0.4-0.1-0.7-0.3-1.1-0.4c-0.7,1.4-1.4,2.7-1.9,4.2c-2.1,6.1-2.9,12.6-6.5,18.2c-0.3,0.5-0.4,1.3-0.4,1.9
			C187,472.6,186.9,475.4,186.6,479.1z M216.3,442.8c3.2-3,3-7.1,4.2-10.8c1.2-3.6,2-7.3,2.8-11c0.9-3.7,2.5-7.2,1.6-11.3
			C222.1,420.7,219.2,431.8,216.3,442.8z M194.4,468.7c0.4,0.2,0.7,0.3,1.1,0.5c2-5,2.9-10.3,4.4-15.5c1.6-5.2,2.8-10.5,4.1-15.7
			c-0.4-0.1-0.7-0.2-1.1-0.3C200.1,448,197.2,458.4,194.4,468.7z M238,406.6c-0.2,0-0.4-0.1-0.6-0.1c-1.2,4.7-2.3,9.3-3.5,14
			c0.2,0.1,0.5,0.1,0.7,0.2C235.8,415.9,236.9,411.2,238,406.6z M204.5,473.7c0.4,0.2,0.8,0.4,1.2,0.6c0.8-1.9,1.7-3.9,2.5-5.8
			c-0.3-0.1-0.6-0.3-1-0.4C206.3,469.9,205.4,471.8,204.5,473.7z"/>
		<path d="M170,480c0.9-2.7,2-5.3,2.5-8.1c0.5-3,1.9-5.3,4.2-7.1c1.9-1.5,2.9-3.3,3.6-5.7c1.6-5.7,3.7-11.2,5.6-16.8
			c0.3,0.1,0.6,0.2,1,0.2c-1,3.5-2,7.1-3,10.6c0.2,0.1,0.5,0.3,0.7,0.4c1.5-1.7,3.1-3.4,4.6-5.1c0.2,0.1,0.5,0.2,0.7,0.4
			c-2.7,8.5-5.3,17-8.1,25.5c-0.7,2-1.9,3.8-2.9,5.7c-1.7,0-3.3,0-5,0c1.6-2.8,2.2-5.8,2.3-9c-2.2,2.6-3.1,5.7-3.3,9
			C172,480,171,480,170,480z"/>
		<path d="M163,480c1.8-4.6,3.6-9.1,5.3-13.7c0.2,0.1,0.5,0.1,0.7,0.2c-1,3.2-1.9,6.5-2.9,9.7c0.3,0.2,0.6,0.4,0.8,0.6
			c1.1-1.5,2.1-3,3.2-4.4c0.2,0.2,0.4,0.4,0.7,0.5c-0.6,2.4-1.2,4.7-1.8,7.1C167,480,165,480,163,480z"/>
		<path d="M640,364c-0.5-0.1-1-0.2-1.4-0.4c-1-0.7-2.8-1.8-2.7-2.2c0.6-2,2.4-1.8,4.1-1.3C640,361.3,640,362.7,640,364z"/>
		<path d="M223,480c1.9-1.8,3.8-3.7,5.7-5.5c0.1,0.6,0.5,1.4,0.2,1.8c-0.9,1.3-1.9,2.5-2.9,3.7C225,480,224,480,223,480z"/>
		<path d="M238.6,363.5c-2,3.3-4.3,6.3-5.9,9.7c-1.5,3.2-1.3,7.1-4.7,9.7c0.8-3.2,1.7-6.5,2.5-9.7c0.7-2.7,1.5-5.4,2.2-8.1
			c0.9-3.4,1.1-3.4,4.4-2.2C237.6,363,238,363.3,238.6,363.5z"/>
		<path d="M576.5,343c0,1.1,0,2.1,0,3.1c-0.3,0-0.6,0.1-0.9,0.1c-0.5-1.7-1.1-3.3-1.3-5c-0.2-1.5,4.1-5.2,5.4-4.7
			c0.6,0.2,1.2,0.7,1.4,1.3c0.4,0.9,0.7,1.9,0.8,2.8c0.2,1.8,0.9,4-1.3,4.7C579.7,345.6,578.2,344,576.5,343z"/>
		<path d="M223.3,387.7c0.4-6.5,2-11.1,4.9-13.9C227.8,378.5,225.8,384.6,223.3,387.7z"/>
		<path d="M581.5,326.4c1.2-1.6,2-2.8,3-3.9c0.4-0.4,1.1-0.5,1.7-0.7c0.1,0.8,0.6,1.7,0.3,2.3C585.6,325.8,584.2,326.8,581.5,326.4z
			"/>
		<path d="M616.3,287.7c-1.8,0.9-2.8,1.5-3.9,2c-0.7-1.3-1.4-2.7-2.1-4c0.2-0.2,0.5-0.4,0.7-0.7
			C612.6,285.8,614.1,286.5,616.3,287.7z"/>
		<path d="M293.4,371c-0.9,3.4-3.9,6.6-6.7,7C288,374.8,291.1,373.3,293.4,371z"/>
		<path d="M624.7,354.2c-2.1-7.4-4.1-14-5.9-20.7c-0.2-0.7,0.3-1.9,0.9-2.4c1.8-1.4,3.7-2.6,6-4.2c0.1,2.9-2.1,3.2-3.3,4.1
			c-1.8,1.4-2.5,2.7-1.5,5c1.2,2.6,1.8,5.5,2.7,8.2c0.4-0.1,0.7-0.2,1.1-0.3c-0.5-1.8-1.1-3.6-1.6-5.4c-0.3-1.1-0.9-2.2-0.9-3.3
			c0-1,0.5-2.5,1.2-2.8c0.8-0.3,2.3,0.3,3,1c0.9,0.9,1.7,2.2,1.8,3.4c0.4,3,2.2,4.5,4.8,5.7c0.9,0.4,1.7,1.4,2.2,2.3
			c0.8,1.1,0.5,2.2-0.7,3C631.4,349.8,628.2,351.9,624.7,354.2z"/>
		<path d="M209.2,441.6c0.7-2.7,1.4-5.4,2.1-8.1c0.2,0,0.4,0.1,0.6,0.1c-0.6,2.7-1.2,5.4-1.8,8C209.8,441.7,209.5,441.7,209.2,441.6
			z"/>
	</g>
</g>
<g id="spring">
	<g>
		<path d="M188.3,59.1h-20.2c6.2,7.1,14,12.8,22.7,16.3c-2.1,1.7-4.9,5.2-6.2,7.6c-5.3-2.4-10.2-5.5-14.6-9.3v31.8h-9.5v-2.9h-32
			v3.3h-9V74.5c-4.5,4-9.6,7.6-15.4,10.7c-1.1-2.3-3.9-5.8-6-7.4c9.9-4.9,17.7-11.3,23.5-18.6h-21.3v-7.6h26.6
			c1.3-2.1,2.4-4.5,3.5-6.7h-20.9v-7.4h23.8c0.8-2.1,1.4-4.4,1.9-6.6h-29.7v-7.5h31.1c0.5-2.8,0.8-5.6,1-8.4l11.5,0.8
			c-0.3,1.1-1,1.6-2.5,1.8c-0.2,1.9-0.5,3.9-0.8,5.8h37.9v7.5h-39.4c-0.5,2.2-1.1,4.4-1.7,6.6h36.9v7.4h-20.7
			c1.2,2.3,2.4,4.6,3.8,6.7h25.8L188.3,59.1L188.3,59.1z M162,65.7c-1.7-2.1-3.4-4.3-4.9-6.6h-24.5c-1.5,2.2-3,4.5-4.8,6.6H162z
			 M160.5,80.5V73h-32v7.5H160.5z M128.5,95.3h32v-8.1h-32V95.3z M152.5,51.6c-1.1-2.1-2.1-4.4-3.1-6.7h-9.5c-0.9,2.2-1.8,4.5-3,6.7
			H152.5z"/>
	</g>
</g>
<g>
	<polygon fill="#FFFFFF" points="424.3,347.5 414.3,343.1 414.5,322.7 409.2,320.3 408.6,374 414,376.2 414.2,352.3 424.3,356.6 
		424.2,380.2 429.7,382.3 429.7,329.8 424.4,327.4 	"/>
	<path fill="#FFFFFF" d="M450.2,359c-0.9-2.9-2-5.3-3.4-7.1c-1.3-1.8-2.8-3-4.5-3.8c-2.8-1.2-5-0.5-6.8,2.3
		c-1.7,2.8-2.6,7.6-2.6,14.3c0,7.1,1,12.7,3,16.7c2,3.9,4.3,6.4,6.9,7.4c3.1,1.2,5.6,0.3,7.3-2.7c1.1-1.9,1.7-3.9,1.8-6.1l-5.2-2.1
		c-0.3,1-0.6,1.7-1,2.2c-0.7,0.9-1.6,1.1-2.8,0.6c-1.1-0.4-2-1.3-2.8-2.6c-1.3-2.1-2-5-2.1-8.9l14,5.8c0-3.3-0.1-5.8-0.3-7.6
		C451.5,364.4,451,361.6,450.2,359z M438.1,362.7c0.2-2.4,0.6-4.2,1.3-5.4c0.7-1.2,1.7-1.5,3-0.9c1.2,0.5,2.2,1.6,3,3.3
		c0.8,1.7,1.3,3.9,1.4,6.6L438.1,362.7z"/>
	<polygon fill="#FFFFFF" points="455,392.2 460.1,394.2 459.1,343.5 454.2,341.2 	"/>
	<polygon fill="#FFFFFF" points="465.1,396.2 470.2,398.1 468.9,348.1 464,345.8 	"/>
	<path fill="#FFFFFF" d="M482.7,365.8c-3.3-1.4-5.6-0.6-7.1,2.6c-1.5,3.2-1.7,7.7-2,12.8c-0.3,5.7,0.9,10.5,2.8,14.8
		c1.9,4.2,4.3,7.3,7.7,8.6c3.4,1.3,5.8,0.4,7.3-2.8c1.5-3.1,2.1-7.3,1.9-12.6c-0.2-5.2-1.2-10-3-14.5
		C488.4,370.3,485.9,367.3,482.7,365.8z M487,395.1c-0.7,1.7-1.8,2.2-3.3,1.6c-1.5-0.6-2.7-2-3.5-4.3c-0.9-2.3-1.3-5.3-1.5-9
		c-0.1-3.7,0.2-6.3,0.9-8c0.7-1.6,1.8-2.1,3.3-1.5c1.5,0.6,2.6,2.1,3.5,4.4c0.9,2.3,1.4,5.2,1.5,8.9
		C488,390.8,487.7,393.4,487,395.1z"/>
	<polygon fill="#FFFFFF" points="529,401.6 528.7,408.4 527.4,400.6 522.6,372.6 516.9,370 515.6,395.9 515.3,403 514.1,395.2 
		509.2,366.5 503.5,363.9 513.4,414.7 518.5,416.7 520,390.4 520.4,381.7 521.8,391.2 526.7,419.8 532,421.8 536,378.7 530.6,376.2 
			"/>
	<path fill="#FFFFFF" d="M547.7,394.2c-3.3-1.4-5.6-0.7-6.9,2.2c-1.3,2.9-1.8,6.8-1.5,11.7c0.4,5,1.5,9.6,3.4,13.7
		c1.9,4.1,4.6,6.9,7.9,8.1c3.4,1.3,5.7,0.5,7.1-2.4c1.3-2.8,1.8-6.6,1.3-11.5c-0.4-4.8-1.6-9.2-3.6-13.4
		C553.5,398.5,550.9,395.6,547.7,394.2z M553.2,421.2c-0.6,1.5-1.7,2-3.2,1.4c-1.5-0.6-2.7-1.9-3.7-4.1c-0.9-2.1-1.6-4.9-1.8-8.3
		c-0.3-3.4-0.1-5.8,0.6-7.3c0.6-1.5,1.7-1.9,3.2-1.3c1.5,0.6,2.7,2,3.6,4.1c0.9,2.1,1.6,4.9,1.8,8.2
		C554,417.3,553.8,419.7,553.2,421.2z"/>
	<path fill="#FFFFFF" d="M571.4,404.7c-1.5-0.6-2.6-0.5-3.5,0.4c-0.5,0.6-1,1.8-1.6,3.6l-0.6-5.7l-4.8-2l3.1,32.9l5.2,1.9l-1.5-15.6
		c-0.3-2.6-0.3-4.5,0-5.6c0.5-1.9,1.7-2.5,3.7-1.7c0.2,0.1,0.4,0.2,0.6,0.3c0.2,0.1,0.5,0.3,0.9,0.5l-0.9-8.7
		c-0.2-0.1-0.4-0.2-0.4-0.2C571.6,404.8,571.5,404.7,571.4,404.7z"/>
	<polygon fill="#FFFFFF" points="578.6,439.3 583.7,441.2 579,397.9 574,395.7 	"/>
	<path fill="#FFFFFF" d="M596.1,405.6l1.9,14.9c-0.7-1.7-1.6-3.2-2.6-4.4c-1-1.2-2.1-2.1-3.2-2.6c-2.5-1.1-4.3-0.4-5.5,2.1
		c-1.2,2.5-1.4,6.4-0.8,11.9c0.5,4.7,1.8,8.9,3.7,12.5c1.9,3.6,4,5.8,6.3,6.6c1.4,0.5,2.5,0.5,3.3,0c0.8-0.5,1.5-1.5,2-3.1l0.5,4.3
		l5,1.8l-5.5-41.9L596.1,405.6z M599.3,438.9c-0.5,1.4-1.5,1.9-3,1.3c-1.4-0.5-2.6-1.8-3.5-3.9c-0.9-2-1.5-4.5-1.9-7.4
		c-0.3-2.7-0.2-4.8,0.2-6.4c0.5-1.5,1.4-2,2.9-1.4c1,0.4,1.9,1.2,2.7,2.5c1.4,2.1,2.3,5.1,2.8,8.9
		C600,435.4,599.9,437.5,599.3,438.9z"/>
</g>
</svg>
